#!OML:ASF C:\Vicon Data\Big\jianyuan-13\jianyuan\Session 1\Capture.male.ASF
:FULLY-SPECIFIED
:DEGREES
42
root -8.194847 17.792866 -20.801043 6.205136 5.157701 -0.232499
lowerback -12.830498 -0.928199 1.847631 
upperback 0.086301 -1.581131 0.964222 
thorax 7.279256 -0.720541 -0.320573 
lowerneck -4.168401 -0.931151 3.998132 
upperneck 2.752395 -1.232352 -6.574677 
head 1.535480 -0.705595 -2.848950 
rclavicle 0.000000 0.000000 
rhumerus -31.980663 -19.783521 -79.232673 
rradius 23.376512 
rwrist 41.346652 
rhand -18.195013 -21.247691 
rfingers 0.000000 
rthumb 8.082158 -51.073112 
lclavicle 0.000000 0.000000 
lhumerus -33.353157 50.901482 72.355986 
lradius 21.803145 
lwrist -71.610337 
lhand -21.658747 5.632074 
lfingers 0.000000 
lthumb 4.738264 35.559063 
rfemur -32.510250 2.505433 21.704280 
rtibia 36.304706 
rfoot -8.317211 -5.417165 
rtoes -27.751634 
lfemur -14.357492 -1.931904 -13.588222 
ltibia 66.727175 
lfoot 2.282996 6.804775 
ltoes -36.680022 
43
root -8.219696 17.807543 -20.717138 5.797675 4.940121 -0.256245
lowerback -12.528558 -0.803807 1.760354 
upperback 0.214544 -1.399767 0.987294 
thorax 7.251257 -0.635947 -0.208929 
lowerneck -4.147683 -0.992905 3.908988 
upperneck 2.843375 -1.306436 -6.545181 
head 1.556921 -0.743330 -2.825034 
rclavicle 0.000000 0.000000 
rhumerus -30.923127 -18.130999 -80.252777 
rradius 23.973678 
rwrist 39.590570 
rhand -18.209224 -21.410360 
rfingers 0.000000 
rthumb 8.068425 -51.236281 
lclavicle 0.000000 0.000000 
lhumerus -36.221252 53.115705 69.008561 
lradius 21.370690 
lwrist -75.047377 
lhand -21.482560 5.562111 
lfingers 0.000000 
lthumb 4.908374 35.485262 
rfemur -31.650319 2.807897 21.856541 
rtibia 36.231693 
rfoot -8.712081 -5.434487 
rtoes -27.942911 
lfemur -15.260503 -1.437135 -13.516109 
ltibia 67.237778 
lfoot 1.105058 7.000261 
ltoes -36.888082 
44
root -8.263098 17.821281 -20.623989 5.340760 4.727255 -0.272782
lowerback -12.254661 -0.698102 1.402679 
upperback 0.370186 -1.208359 1.048755 
thorax 7.273863 -0.556783 0.096064 
lowerneck -4.161998 -1.086546 3.923458 
upperneck 2.973517 -1.427751 -6.533676 
head 1.594524 -0.804625 -2.828896 
rclavicle 0.000000 0.000000 
rhumerus -29.959302 -16.891262 -81.051335 
rradius 24.506087 
rwrist 38.494656 
rhand -18.094333 -21.329605 
rfingers 0.000000 
rthumb 8.179315 -51.151267 
lclavicle 0.000000 0.000000 
lhumerus -39.341253 55.118252 65.369827 
lradius 20.897279 
lwrist -78.266732 
lhand -21.607026 5.410451 
lfingers 0.000000 
lthumb 4.788185 35.336337 
rfemur -30.675188 3.183208 22.082282 
rtibia 36.158746 
rfoot -9.185268 -5.543815 
rtoes -28.080804 
lfemur -16.011601 -0.859514 -13.349936 
ltibia 67.602961 
lfoot 0.074420 6.913546 
ltoes -36.861402 
45
root -8.287756 17.833272 -20.544015 5.170521 4.636190 -0.292234
lowerback -12.146140 -0.598277 1.289410 
upperback 0.434172 -1.057455 1.039773 
thorax 7.283803 -0.487182 0.179005 
lowerneck -4.233336 -1.189327 4.113719 
upperneck 3.134433 -1.565559 -6.685956 
head 1.651077 -0.876490 -2.923393 
rclavicle 0.000000 0.000000 
rhumerus -29.039360 -15.672577 -81.821272 
rradius 25.055553 
rwrist 37.367568 
rhand -18.247200 -21.113862 
rfingers 0.000000 
rthumb 8.031721 -50.941238 
lclavicle 0.000000 0.000000 
lhumerus -42.650534 56.809381 61.538828 
lradius 20.608409 
lwrist -81.344030 
lhand -21.566191 5.248386 
lfingers 0.000000 
lthumb 4.827621 35.173419 
rfemur -30.122681 3.269266 22.260247 
rtibia 36.127479 
rfoot -9.531840 -5.525224 
rtoes -28.158726 
lfemur -17.274645 -0.347075 -13.286285 
ltibia 67.973453 
lfoot -0.770886 6.882460 
ltoes -38.799760 
46
root -8.294938 17.840552 -20.474810 5.144516 4.553892 -0.273426
lowerback -12.054824 -0.433719 1.423572 
upperback 0.416853 -0.847616 0.933467 
thorax 7.211089 -0.378299 0.029804 
lowerneck -4.275652 -1.307574 4.108924 
upperneck 3.345791 -1.718956 -6.599574 
head 1.718338 -0.953292 -2.901095 
rclavicle 0.000000 0.000000 
rhumerus -28.159275 -14.369852 -82.599906 
rradius 25.752383 
rwrist 35.824847 
rhand -18.069905 -21.126518 
rfingers 0.000000 
rthumb 8.202879 -50.947230 
lclavicle 0.000000 0.000000 
lhumerus -45.669326 57.784877 58.047690 
lradius 20.426170 
lwrist -83.737640 
lhand -21.344245 4.894931 
lfingers 0.000000 
lthumb 5.041964 34.814925 
rfemur -29.831037 3.275883 22.318285 
rtibia 36.142447 
rfoot -9.798332 -5.479418 
rtoes -28.339782 
lfemur -18.879625 -0.009130 -13.403033 
ltibia 68.451205 
lfoot -1.723628 6.874600 
ltoes -39.571047 
47
root -8.280847 17.842326 -20.411436 5.177000 4.477467 -0.220632
lowerback -11.958251 -0.299068 1.730052 
upperback 0.367867 -0.702378 0.844935 
thorax 7.100521 -0.295509 -0.209662 
lowerneck -4.248759 -1.382654 4.031573 
upperneck 3.453207 -1.810458 -6.574602 
head 1.743243 -0.999722 -2.881682 
rclavicle 0.000000 0.000000 
rhumerus -27.308647 -13.195094 -83.176803 
rradius 26.457447 
rwrist 34.581798 
rhand -18.129717 -21.126838 
rfingers 0.000000 
rthumb 8.145131 -50.949802 
lclavicle 0.000000 0.000000 
lhumerus -48.630281 58.518424 54.759237 
lradius 20.228137 
lwrist -85.482588 
lhand -21.106132 4.675326 
lfingers 0.000000 
lthumb 5.271864 34.589739 
rfemur -29.699937 2.822998 22.321647 
rtibia 36.170253 
rfoot -9.900657 -5.023816 
rtoes -28.393760 
lfemur -20.666096 0.152747 -13.726074 
ltibia 68.900666 
lfoot -2.823303 7.036844 
ltoes -39.957076 
